<?xml version="1.0" standalone="no"?>
<!DOCTYPE svg PUBLIC "-//W3C//DTD SVG 20010904//EN"
 "http://www.w3.org/TR/2001/REC-SVG-20010904/DTD/svg10.dtd">
<svg version="1.0" xmlns="http://www.w3.org/2000/svg"
 width="1200.000000pt" height="900.000000pt" viewBox="0 0 1200.000000 900.000000"
 preserveAspectRatio="xMidYMid meet">

<g transform="translate(0.000000,900.000000) scale(0.100000,-0.100000)"
fill="#000000" stroke="none">
<path d="M5714 8941 c-109 -91 -178 -175 -230 -281 -25 -52 -48 -109 -51 -127
-9 -54 -21 -48 -29 13 -13 111 10 246 61 343 9 18 12 32 6 30 -22 -8 -230
-211 -299 -291 -141 -166 -171 -249 -159 -435 4 -51 4 -93 2 -93 -3 0 -22 18
-42 41 -64 70 -172 113 -318 125 -47 4 -85 4 -85 0 0 -4 29 -34 65 -67 63 -60
114 -143 129 -211 7 -29 -9 -38 -29 -19 -27 26 -138 51 -224 51 -148 0 -284
-54 -442 -176 -93 -71 -250 -236 -238 -249 2 -2 36 12 75 31 91 46 191 62 269
45 51 -12 76 -31 39 -31 -78 0 -300 -226 -459 -468 -34 -52 -43 -52 -167 2
-49 21 -78 29 -78 22 0 -7 24 -52 53 -102 63 -108 225 -276 335 -348 l73 -48
-58 -62 c-74 -77 -92 -103 -143 -205 -45 -89 -73 -170 -85 -240 l-7 -45 108
114 c119 124 213 200 249 200 12 0 48 -19 80 -42 48 -36 54 -44 36 -46 -12 -2
-58 6 -103 17 -45 12 -83 19 -85 17 -8 -7 28 -81 57 -117 l28 -36 -104 -104
c-58 -57 -122 -126 -142 -154 l-37 -50 2 -101 c2 -98 1 -102 -22 -112 -34 -16
-52 -48 -64 -115 -9 -48 -22 -73 -85 -156 -110 -144 -156 -220 -156 -253 0
-16 12 -59 26 -94 l26 -65 -23 -47 c-12 -26 -22 -63 -23 -82 -1 -29 5 -38 37
-59 34 -22 37 -28 37 -72 0 -56 10 -69 90 -109 46 -23 60 -36 65 -59 11 -51
23 -55 158 -47 130 7 233 26 271 51 29 19 46 56 46 102 0 25 9 45 30 70 27 31
30 40 30 106 0 70 1 74 46 132 25 33 60 90 79 126 32 63 36 67 77 73 24 4 61
16 84 27 39 19 152 128 205 198 l25 34 31 -49 c18 -27 50 -66 72 -88 l39 -38
-53 -63 c-29 -35 -58 -73 -65 -84 -8 -16 -20 -21 -51 -21 -56 0 -89 -34 -89
-92 0 -32 -13 -68 -50 -141 -48 -94 -50 -101 -50 -180 1 -154 46 -398 93 -492
46 -93 298 -300 418 -342 41 -15 49 -21 45 -38 -24 -94 -40 -229 -40 -336 l-1
-125 -89 78 c-49 43 -107 90 -130 103 -55 32 -185 63 -326 76 -96 9 -138 18
-250 59 -128 45 -314 92 -426 106 -115 14 -268 -49 -373 -155 -36 -36 -74 -85
-85 -108 -18 -40 -18 -47 -2 -185 18 -153 28 -210 77 -414 37 -157 67 -215
134 -266 99 -76 416 -216 562 -249 42 -9 119 -6 446 15 31 2 57 1 57 -3 0 -4
-17 -43 -39 -86 -52 -109 -109 -259 -147 -390 l-32 -110 -97 -56 c-54 -30
-113 -72 -132 -93 -33 -36 -34 -39 -28 -94 4 -31 16 -104 27 -161 l19 -104
-30 -38 c-46 -56 -81 -128 -81 -164 0 -43 45 -128 131 -247 l69 -97 -40 -121
c-47 -142 -52 -206 -18 -277 28 -59 144 -183 221 -235 90 -61 126 -71 257 -71
162 1 287 28 415 92 208 103 295 175 345 282 18 39 40 73 49 75 52 16 148 70
187 106 47 43 49 52 29 114 -5 16 6 33 49 76 84 86 125 182 96 228 -6 10 -2
27 15 57 26 44 55 147 55 198 0 17 -9 47 -20 68 -23 42 -25 78 -8 141 10 37 9
51 -5 86 l-16 41 34 45 c19 24 47 78 62 119 25 67 31 75 52 73 20 -3 32 -21
76 -124 127 -295 212 -390 405 -452 210 -68 391 -68 593 -1 83 27 126 31 85 8
-35 -19 -79 -62 -94 -91 -12 -22 -13 -47 -8 -113 4 -46 4 -95 0 -109 -4 -15
-29 -51 -57 -82 -27 -30 -55 -67 -60 -82 -20 -52 24 -522 55 -596 11 -26 35
-49 93 -87 90 -59 250 -138 340 -168 111 -37 158 -27 232 54 51 55 80 116 81
167 0 41 39 262 71 405 13 58 37 125 65 180 25 48 54 113 64 143 l18 55 -25
85 c-27 91 -42 284 -29 374 7 43 10 46 47 56 55 15 76 40 84 97 15 109 47 248
65 284 35 68 71 211 77 306 6 88 5 94 -31 178 -20 48 -36 91 -36 97 0 5 11 24
25 42 30 40 55 108 55 151 0 18 -11 53 -25 78 -22 42 -23 52 -15 104 6 32 10
79 10 104 0 44 3 50 61 104 58 53 187 149 212 158 9 3 7 14 -5 41 -10 20 -18
39 -18 41 0 3 18 14 39 25 22 11 47 30 55 42 14 20 14 24 -5 55 l-21 33 66
149 c100 223 116 333 65 435 -70 142 -323 383 -472 452 -57 26 -77 27 -148 9
-24 -6 -27 -2 -50 55 -36 90 -55 109 -124 126 -33 7 -75 14 -92 14 -38 0 -38
0 -18 76 14 56 14 59 -6 80 -12 12 -43 32 -70 44 -58 24 -57 24 -94 190 -15
69 -32 131 -38 138 -15 19 -85 53 -137 67 l-44 11 67 31 c36 18 89 52 116 78
50 47 108 122 99 130 -2 2 -28 -4 -56 -15 -29 -11 -57 -20 -62 -20 -6 0 -10
18 -10 40 0 62 -19 136 -46 176 -14 20 -23 39 -20 42 3 3 44 15 90 27 104 27
159 59 225 131 72 79 191 267 178 281 -3 2 -22 -5 -43 -16 -54 -29 -62 -27
-74 22 -19 73 -22 81 -47 130 -31 62 -94 130 -139 152 l-36 17 49 33 c111 74
192 200 214 329 23 135 -13 607 -46 607 -5 0 -17 -30 -27 -68 -16 -65 -76
-203 -87 -203 -3 0 -6 53 -6 118 0 64 -7 167 -15 229 -13 102 -12 116 4 175
20 73 62 145 120 205 22 24 37 45 34 48 -3 3 -38 -2 -79 -10 -88 -19 -224 -84
-285 -138 -49 -43 -54 -37 -24 28 23 51 66 97 134 143 26 18 46 36 43 39 -9 8
-175 -65 -227 -100 -25 -16 -57 -41 -71 -54 l-27 -25 -3 84 c-5 99 -34 166
-110 252 -27 30 -49 61 -49 69 0 29 80 173 131 235 28 35 49 66 46 68 -9 10
-179 -65 -227 -100 -28 -20 -50 -33 -50 -29 0 3 16 35 35 71 20 35 34 67 31
69 -3 3 -31 -18 -64 -46 -93 -81 -149 -159 -180 -251 l-18 -51 -44 78 c-62
109 -109 156 -200 202 -85 42 -268 107 -277 97 -4 -3 -4 -7 -2 -9 57 -41 111
-96 127 -130 24 -50 45 -152 40 -188 -3 -22 -5 -21 -30 18 -34 53 -74 92 -104
103 -13 5 -77 16 -143 24 -149 18 -184 32 -210 85 -27 52 -67 191 -75 264 -4
31 -11 57 -16 57 -14 0 -99 -271 -105 -336 -3 -33 -8 -74 -11 -92 l-5 -33 -18
23 c-30 38 -61 118 -67 173 -7 61 12 163 58 303 16 51 28 95 26 97 -2 2 -35
-22 -74 -54z m-1684 -1717 c-89 -89 -143 -124 -194 -124 -47 0 -86 9 -86 20 0
18 198 135 264 156 82 26 85 18 16 -52z m1660 -172 c-42 -88 -103 -342 -86
-360 3 -2 14 16 27 40 60 120 190 216 342 252 26 6 28 5 21 -16 -16 -53 -145
-190 -222 -235 -50 -30 -174 -73 -208 -73 -13 0 -24 -4 -24 -9 0 -14 157 -23
232 -13 72 9 77 2 20 -28 -46 -23 -106 -74 -78 -65 11 3 35 8 55 11 143 23
343 97 456 170 52 33 96 39 237 35 l37 -1 -18 -42 c-10 -24 -27 -63 -38 -88
-11 -25 -26 -60 -33 -77 -7 -18 -16 -30 -21 -27 -5 3 -7 -1 -4 -8 11 -31 -9
-38 -67 -23 -31 9 -76 17 -100 19 -24 2 -45 4 -47 5 -3 1 26 20 65 43 38 23
88 56 110 75 24 20 48 31 57 27 8 -3 18 -1 22 5 3 6 0 9 -8 5 -11 -4 -13 1
-10 20 7 34 -10 33 -56 -1 -107 -83 -305 -191 -463 -254 -82 -32 -108 -47
-108 -61 0 -23 17 -23 82 2 68 26 70 25 53 -7 -17 -34 -44 -123 -37 -123 2 0
31 29 64 65 42 46 79 74 126 97 60 30 76 33 157 33 128 0 133 -3 91 -62 -19
-27 -44 -58 -55 -69 -11 -12 -18 -24 -15 -26 6 -7 160 21 208 37 47 16 55 12
62 -37 11 -66 -108 -261 -200 -329 l-40 -29 45 0 c24 0 71 7 104 14 33 8 61
13 63 11 7 -7 -32 -86 -47 -94 -34 -19 -185 -33 -289 -29 -125 6 -203 31 -262
84 -46 42 -58 44 -30 4 26 -36 129 -88 212 -106 77 -16 204 -18 282 -3 32 6
60 8 63 6 9 -9 -17 -47 -32 -47 -8 0 -15 -8 -15 -19 0 -10 -18 -35 -40 -55
l-40 -36 27 0 c16 0 48 5 72 11 37 8 45 7 56 -7 13 -19 37 -11 29 10 -4 10 12
19 51 32 32 9 101 39 154 65 53 26 97 46 98 45 1 -1 -16 -26 -38 -55 -22 -29
-38 -55 -36 -58 3 -2 22 4 44 15 21 11 48 23 61 27 21 6 23 4 20 -21 -2 -22
-15 -35 -60 -61 -75 -44 -82 -67 -34 -110 19 -18 42 -33 51 -33 8 0 30 14 50
31 41 37 135 159 135 177 0 14 -17 17 -22 3 -10 -26 -146 -181 -159 -181 -12
0 -49 38 -49 49 0 5 25 24 55 41 57 33 72 57 63 105 -6 30 21 45 29 15 3 -11
12 -20 20 -20 11 0 13 7 8 30 -6 25 -1 37 32 74 36 41 39 42 51 25 17 -25 36
-24 28 1 -3 11 -9 28 -12 38 -5 16 -1 18 26 14 23 -3 29 -9 25 -21 -2 -9 -13
-57 -24 -106 -11 -50 -27 -109 -36 -132 -18 -45 -100 -128 -181 -184 l-46 -31
-49 15 c-133 43 -412 49 -500 10 -25 -11 -56 -34 -68 -51 -30 -42 -85 -162
-119 -257 -29 -84 -28 -82 -89 -76 -7 0 3 25 23 58 46 76 57 121 52 218 -2 64
-9 93 -34 146 -38 80 -79 120 -164 161 -96 47 -171 49 -329 9 -69 -17 -139
-31 -156 -31 -17 0 -51 -10 -75 -22 -36 -19 -51 -35 -77 -85 -72 -140 -48
-329 58 -464 34 -43 136 -116 147 -105 4 5 -4 15 -18 24 -14 9 -45 36 -69 59
l-43 43 4 97 c3 88 7 104 36 158 52 95 92 134 154 151 78 20 82 18 37 -23 -22
-20 -53 -60 -67 -87 -24 -46 -27 -62 -27 -153 0 -86 -2 -100 -14 -90 -20 17
-41 71 -41 107 0 18 -4 29 -10 25 -17 -10 -11 -88 9 -121 11 -18 40 -42 68
-55 66 -33 223 -34 294 -2 116 53 189 175 189 317 0 32 32 86 50 86 5 0 19
-31 31 -70 69 -219 -89 -438 -346 -481 -41 -7 -75 -17 -75 -21 0 -13 70 -9
130 7 75 20 75 20 43 -21 l-28 -36 -115 4 c-134 5 -183 22 -303 109 -179 130
-466 408 -505 491 -30 63 -40 168 -48 503 -11 464 -11 472 -18 538 -6 60 -5
64 33 122 46 68 171 197 238 245 43 32 45 32 38 9 -10 -30 -10 -153 0 -169 5
-7 18 6 35 37 16 26 42 64 58 83 l30 35 16 -39 c9 -21 28 -57 42 -80 83 -134
122 -207 106 -201 -100 43 -122 48 -187 49 -121 0 -196 -56 -266 -199 -49
-101 -70 -209 -65 -327 l4 -83 46 -42 c112 -101 295 -103 479 -5 26 14 47 29
47 34 0 13 -13 10 -69 -17 -134 -65 -301 -74 -398 -21 -80 44 -82 47 -71 146
17 163 78 320 150 387 122 115 336 42 428 -146 35 -72 58 -94 45 -43 -12 44
-22 112 -17 112 3 0 16 -10 29 -21 19 -18 25 -20 38 -9 13 11 9 19 -33 64 -92
99 -169 210 -249 361 l-53 99 28 23 c126 107 298 165 457 155 l52 -4 -17 -36z
m870 -701 c0 -6 -4 -13 -10 -16 -5 -3 -10 1 -10 9 0 9 5 16 10 16 6 0 10 -4
10 -9z m1141 -68 c42 -22 99 -79 99 -97 0 -3 -22 -6 -49 -6 -52 0 -81 17 -81
48 0 9 -9 32 -20 50 -24 39 -13 40 51 5z m-3585 -74 l40 -22 -13 -50 c-7 -28
-10 -53 -7 -56 4 -3 9 0 11 7 9 23 91 72 122 72 17 0 31 -3 31 -6 0 -4 -14
-22 -30 -41 -37 -42 -85 -136 -100 -195 l-11 -44 -72 1 c-70 0 -177 -28 -177
-47 0 -4 18 -9 40 -9 22 -1 43 -2 48 -3 44 -10 63 -19 72 -37 10 -19 10 -20
-9 -10 -11 6 -37 11 -58 11 l-38 0 56 -33 c111 -64 139 -82 136 -89 -1 -3 -30
-27 -65 -52 -34 -26 -71 -61 -82 -79 -22 -35 -21 -64 6 -186 18 -82 6 -96 -34
-41 -26 36 -126 130 -138 130 -2 0 8 -16 21 -36 14 -20 25 -40 25 -44 0 -4
-21 -7 -47 -7 -92 1 -144 -3 -139 -12 3 -4 24 -11 47 -15 22 -4 60 -16 82 -29
l42 -22 -30 -3 c-36 -3 -115 -31 -115 -40 0 -4 23 -8 50 -9 49 -3 110 -25 110
-41 0 -4 -14 -29 -30 -57 -43 -72 -40 -84 16 -83 63 1 74 -13 36 -50 -39 -38
-65 -89 -59 -113 6 -23 -5 -24 -41 -5 -28 15 -80 68 -163 166 -26 30 -58 68
-71 84 -13 16 -30 27 -37 25 -16 -6 96 -155 182 -242 52 -53 74 -68 105 -73
33 -5 41 -11 51 -40 7 -19 17 -34 22 -34 17 0 9 -19 -12 -31 -19 -10 -33 -3
-111 51 -95 65 -143 90 -180 90 -48 1 -113 80 -102 124 6 27 20 34 26 14 2 -6
9 -9 14 -5 7 4 -3 44 -24 108 l-34 103 20 40 c11 23 61 96 111 163 81 108 93
130 107 192 18 80 40 106 111 130 57 19 63 37 11 33 l-38 -3 0 78 c1 82 6 97
56 157 33 39 102 66 172 66 44 0 33 14 -23 30 -25 7 -45 15 -45 17 0 7 102
123 109 123 3 0 24 -10 47 -21z m414 -218 c0 -11 -67 -57 -112 -76 -21 -8 -38
-20 -38 -25 0 -10 83 -15 170 -10 25 1 68 11 95 21 28 10 51 19 51 19 1 0 2
-71 3 -158 1 -86 6 -174 10 -194 8 -35 7 -37 -103 -151 -106 -111 -114 -117
-180 -136 -81 -25 -86 -25 -86 -6 0 8 17 23 38 34 72 37 77 48 80 193 3 125 3
131 -20 155 -26 28 -172 144 -203 161 -50 28 -50 28 -20 67 44 59 129 90 308
114 4 1 7 -3 7 -8z m1265 -343 c30 -11 55 -24 55 -28 0 -20 -76 -41 -167 -46
-54 -3 -138 -14 -187 -25 -49 -11 -99 -18 -110 -15 -20 5 -86 58 -86 68 0 3
24 8 53 11 28 4 95 18 147 31 52 14 106 27 120 29 41 8 117 -2 175 -25z m1610
-36 c42 -25 92 -79 82 -89 -10 -9 -70 6 -104 27 -26 15 -73 83 -73 104 0 7 47
-14 95 -42z m-3166 -21 c48 -50 61 -96 61 -215 0 -115 -10 -143 -79 -226 -50
-59 -51 -63 -51 -125 l0 -65 -52 -26 c-28 -14 -81 -30 -117 -35 -47 -7 -71
-15 -83 -30 l-18 -21 0 26 c0 17 14 42 40 70 37 40 40 48 46 117 5 59 13 85
38 129 47 78 47 79 26 182 -25 119 -25 120 7 159 32 38 112 98 131 99 8 0 30
-17 51 -39z m1624 -228 c-7 -46 -46 -129 -76 -161 -12 -13 -42 -36 -67 -50
-39 -24 -58 -27 -152 -30 -95 -4 -107 -2 -116 14 -15 31 -23 104 -16 151 l6
43 27 -26 c14 -14 44 -35 65 -46 76 -39 193 -2 284 91 26 26 48 49 49 49 1 1
-1 -15 -4 -35z m666 -9 c-112 -122 -327 -304 -358 -304 -28 0 -27 1 22 117 47
111 85 158 145 177 50 17 137 33 186 35 l29 1 -24 -26z m175 10 c6 -15 -33
-74 -69 -104 -12 -10 -15 -10 -15 1 0 8 -9 32 -21 53 -29 54 -21 66 45 66 40
0 55 -4 60 -16z m-122 -90 l20 -46 -68 -69 c-38 -38 -71 -69 -74 -69 -3 0 -14
22 -26 48 l-20 47 65 66 c37 36 70 66 74 67 4 1 17 -19 29 -44z m636 -19 c89
-45 90 -46 101 -93 15 -64 52 -275 48 -278 -6 -5 -140 -64 -142 -62 -1 2 -10
28 -20 58 -22 70 -89 197 -123 234 -64 68 -160 82 -332 46 -52 -11 -97 -20
-99 -20 -3 0 6 11 18 24 55 58 228 111 447 135 7 0 52 -19 102 -44z m255 -22
l32 -17 -73 -7 c-65 -6 -76 -5 -93 12 -10 10 -19 21 -19 24 0 13 124 4 153
-12z m-1067 -108 c21 -52 18 -69 -25 -103 l-40 -32 -56 22 -57 22 27 19 c15
11 50 40 78 64 28 23 52 43 54 43 2 0 11 -16 19 -35z m600 -1 c19 -9 34 -21
34 -28 -1 -6 -25 -26 -54 -45 -30 -18 -83 -62 -120 -97 -83 -81 -103 -83 -210
-19 -42 24 -87 47 -101 51 l-25 6 20 27 c58 79 61 81 160 100 122 25 250 27
296 5z m-3060 -20 c-3 -9 -6 -22 -6 -30 0 -9 -11 -14 -32 -14 l-32 0 29 30
c31 33 51 39 41 14z m1179 -26 l53 -43 4 -85 c1 -47 2 -87 1 -89 -2 -2 -29 21
-60 51 -32 31 -71 67 -87 80 l-29 25 28 51 c16 29 30 52 32 52 2 0 28 -19 58
-42z m960 -87 c260 -63 524 -202 620 -327 79 -104 110 -285 103 -607 -3 -192
-6 -215 -23 -240 -25 -34 -35 -34 -35 -1 0 15 -5 44 -11 65 -10 33 -9 41 10
65 20 25 28 54 15 54 -3 0 -26 -23 -51 -50 -25 -28 -83 -78 -129 -111 -78 -57
-99 -79 -74 -79 22 0 112 52 149 85 21 19 41 35 44 35 12 0 18 -154 7 -203 -6
-29 -13 -62 -16 -74 -6 -30 -80 -121 -117 -144 -60 -36 -325 -19 -393 26 -13
8 -36 38 -50 67 l-26 51 34 -7 c98 -20 170 -25 218 -16 57 11 198 59 205 70 2
4 -44 9 -103 12 -131 7 -179 25 -258 100 -55 51 -102 124 -89 136 3 4 68 7
143 8 240 3 262 4 262 12 0 4 -35 15 -78 25 -92 22 -213 83 -268 135 -91 85
-131 168 -141 291 -5 72 -4 79 19 106 23 26 33 29 104 35 l79 6 -45 21 c-25
11 -52 23 -60 26 -31 11 79 6 175 -8 124 -18 169 -30 222 -61 34 -20 44 -33
58 -76 10 -29 37 -96 61 -149 24 -53 47 -109 50 -126 8 -40 -19 -99 -84 -187
-52 -69 -63 -96 -39 -96 20 0 117 128 150 198 35 74 34 79 -38 247 -23 55 -50
121 -59 148 -11 29 -31 57 -51 73 -74 56 -231 89 -484 100 l-153 7 -85 44
c-47 23 -96 43 -108 43 -50 0 -119 -86 -113 -142 3 -29 7 -33 35 -36 31 -3 31
-4 21 -33 -21 -60 -2 -135 72 -289 38 -80 72 -158 76 -173 l7 -29 -41 21 c-71
36 -152 164 -205 324 -36 107 -36 131 1 211 45 96 192 315 256 381 51 52 57
55 103 55 26 0 84 -9 128 -19z m-828 -21 c39 -29 41 -33 48 -98 3 -37 10 -84
15 -104 9 -45 4 -47 -33 -13 -37 35 -53 70 -67 145 -6 36 -13 73 -15 83 -4 24
5 22 52 -13z m2213 -148 l75 -28 3 -55 3 -56 -73 -45 c-40 -25 -79 -48 -86
-52 -9 -6 -12 8 -11 56 1 86 -10 112 -61 132 -24 9 -39 20 -36 24 4 3 31 16
59 28 29 12 52 23 52 23 0 0 34 -12 75 -27z m235 18 c11 -17 -14 -47 -43 -53
-17 -3 -41 -9 -56 -13 -22 -5 -26 -3 -26 14 0 12 -5 24 -12 28 -18 12 39 33
89 34 23 0 45 -4 48 -10z m-4005 -72 c86 -65 142 -98 167 -98 12 0 38 14 56
30 19 17 40 30 46 30 20 0 13 -58 -8 -70 -31 -16 -102 -11 -148 10 -24 10 -68
24 -99 29 -31 6 -71 19 -88 29 -26 15 -32 25 -34 60 l-3 41 28 -9 c15 -6 53
-29 83 -52z m3499 13 c18 -18 17 -19 -63 -59 -74 -38 -176 -68 -176 -53 0 13
182 122 218 130 1 1 10 -7 21 -18z m144 -86 c4 -22 -2 -29 -37 -47 -53 -27
-181 -113 -225 -150 -18 -16 -36 -27 -38 -24 -8 7 96 125 141 161 46 37 139
93 147 89 4 -2 9 -15 12 -29z m-1528 -47 c25 -12 45 -26 45 -30 0 -4 -19 -8
-42 -9 -24 0 -64 -4 -90 -8 -56 -9 -60 0 -21 41 32 34 49 35 108 6z m2060 1
c30 -14 68 -71 80 -119 5 -22 1 -28 -31 -43 -20 -10 -37 -17 -38 -15 -1 2 -20
25 -41 51 -44 55 -92 83 -184 107 -64 17 -64 17 -35 28 39 16 211 9 249 -9z
m-249 -50 c41 -11 90 -27 107 -34 42 -18 124 -102 112 -114 -6 -5 -48 -25 -95
-46 -47 -20 -89 -41 -94 -46 -20 -19 -44 -9 -51 20 -10 46 -77 115 -136 140
-28 12 -49 24 -47 26 4 4 122 74 125 75 2 0 37 -9 79 -21z m-2241 -114 c9 -27
24 -61 32 -73 8 -13 13 -26 11 -28 -12 -12 -87 86 -102 133 -5 16 -2 22 11 25
23 6 26 2 48 -57z m2058 9 c48 -25 89 -62 119 -108 16 -22 28 -44 28 -48 0
-11 -119 -70 -128 -64 -16 10 -190 36 -254 38 -38 1 -68 4 -68 5 0 5 110 106
145 135 79 63 104 69 158 42z m-1919 -137 c3 -18 28 -77 55 -132 69 -140 51
-142 -77 -9 l-103 107 53 32 c29 19 56 34 59 34 4 1 10 -14 13 -32z m-109 -97
c20 -27 66 -77 103 -110 53 -49 63 -63 52 -71 -28 -19 -151 -80 -199 -98 -54
-22 -54 -22 -144 52 -49 41 -181 187 -174 193 2 2 42 11 90 19 47 8 114 26
149 39 35 14 68 25 75 25 6 1 28 -21 48 -49z m-689 -13 c49 -11 55 -17 109
-92 31 -44 82 -106 113 -137 31 -32 52 -58 46 -58 -34 0 -265 186 -324 260
-36 46 -32 48 56 27z m324 -72 c52 -70 138 -157 191 -192 48 -32 43 -36 -60
-52 -86 -14 -92 -11 -178 78 -52 53 -161 181 -177 209 -5 9 15 12 88 12 l95 0
41 -55z m2224 -269 c72 -74 90 -87 161 -116 224 -90 263 -110 275 -143 13 -38
29 -203 30 -308 0 -42 9 -120 21 -175 l21 -99 -36 -31 c-20 -17 -87 -59 -149
-92 -242 -131 -293 -133 -417 -17 -68 63 -171 133 -277 189 -60 31 -119 65
-133 76 l-25 19 1 173 c0 218 18 303 77 382 14 19 16 19 40 3 l26 -17 -29 -62
c-17 -35 -27 -70 -25 -80 3 -9 -1 -59 -10 -112 -20 -127 -20 -238 1 -282 17
-35 28 -44 167 -137 98 -66 156 -97 179 -97 15 0 11 8 -18 36 -79 80 -99 202
-50 310 l27 58 47 -47 c36 -35 71 -56 145 -86 117 -48 157 -71 219 -129 43
-40 68 -47 68 -20 0 6 -27 37 -61 70 -48 46 -88 72 -192 123 -110 53 -137 70
-160 104 -23 34 -38 43 -105 65 -60 21 -90 38 -139 82 -37 32 -63 64 -63 75 0
11 9 37 20 59 32 64 28 88 -24 124 -17 11 -10 18 73 75 94 64 182 109 215 110
11 1 53 -34 100 -83z m-1369 4 c22 -42 19 -73 -15 -140 -16 -33 -30 -69 -30
-80 0 -23 -17 -25 -44 -5 -11 8 -32 15 -47 15 -32 0 -49 -37 -49 -106 0 -41 3
-45 40 -64 134 -69 331 -220 431 -331 82 -92 80 -88 130 -199 113 -253 304
-585 543 -944 67 -103 121 -186 118 -186 -2 0 -30 14 -62 31 -105 56 -247 180
-348 304 -43 53 -42 29 4 -88 45 -118 92 -204 160 -293 63 -84 189 -206 257
-251 l48 -31 -53 -16 c-29 -9 -105 -23 -168 -33 -97 -14 -133 -15 -226 -5 -60
6 -143 18 -182 28 l-72 17 -47 71 c-42 63 -173 305 -173 319 0 8 149 -44 238
-83 80 -34 107 -35 107 -6 0 15 -23 30 -100 63 -55 25 -133 56 -174 69 -84 29
-44 31 -452 -27 -151 -21 -305 -39 -340 -39 l-65 0 -55 58 c-66 68 -96 110
-219 302 -50 80 -104 158 -118 173 -40 43 -105 77 -182 98 -60 15 -87 17 -217
9 -81 -5 -204 -12 -273 -15 l-125 -7 -90 55 c-211 126 -351 242 -389 320 -49
99 -55 242 -20 446 8 46 14 85 14 86 0 1 14 20 31 41 25 32 29 44 24 74 -5 31
-2 39 32 72 53 51 177 128 206 128 42 0 273 -68 379 -111 73 -30 106 -39 117
-32 26 16 226 -25 302 -63 25 -12 109 -83 187 -158 137 -130 144 -135 199
-145 123 -24 268 -62 327 -87 33 -14 69 -26 80 -25 27 0 159 -100 247 -188
138 -138 177 -257 166 -501 -7 -148 -26 -255 -55 -303 -20 -36 -107 -83 -217
-119 l-70 -22 55 -9 c89 -14 256 -2 330 23 160 53 316 137 331 177 5 13 14 78
20 143 15 163 -1 354 -36 425 -33 67 -145 195 -241 276 -200 166 -288 201
-559 220 -122 9 -261 31 -275 45 -15 16 132 98 233 130 70 22 110 14 256 -51
139 -62 255 -132 333 -203 58 -52 57 -31 -2 40 -120 146 -253 268 -345 316
-69 37 -68 34 -46 83 10 24 27 79 37 123 l18 78 69 -7 68 -6 -2 28 c-4 38 11
123 22 123 5 0 15 -13 24 -30z m-2049 -158 c-3 -5 -35 -26 -72 -48 -90 -53
-124 -93 -124 -147 0 -31 -5 -45 -19 -54 -26 -16 -67 -152 -82 -270 -14 -110
0 -251 32 -336 27 -72 91 -142 194 -217 47 -34 85 -63 85 -66 0 -12 -259 129
-291 158 -42 38 -69 113 -114 313 -28 125 -65 359 -65 410 0 74 135 205 258
250 40 15 206 20 198 7z m4101 -71 c29 -10 55 -16 58 -13 9 9 25 -20 25 -45 0
-13 -2 -23 -4 -23 -3 0 -137 88 -145 96 -10 9 17 3 66 -15z m164 -16 c19 -14
62 -53 97 -87 54 -54 62 -67 61 -97 -1 -79 -16 -141 -42 -178 -47 -66 -80 -99
-85 -85 -8 26 -45 52 -66 47 -18 -5 -24 3 -44 68 l-23 74 31 51 c31 49 32 54
28 141 -2 50 -1 91 2 91 3 0 22 -11 41 -25z m-249 -174 c42 -39 67 -73 107
-151 28 -56 51 -110 51 -120 0 -11 -18 -48 -40 -82 -22 -35 -40 -69 -40 -75 0
-22 -15 -15 -68 35 -46 43 -52 53 -66 119 -17 75 -23 323 -8 323 4 0 33 -22
64 -49z m503 -133 l45 -87 -39 -30 c-21 -17 -43 -31 -47 -31 -5 0 -17 20 -27
43 -14 34 -15 50 -7 71 5 15 10 55 10 89 0 72 1 71 65 -55z m-1887 -164 c185
-74 199 -87 223 -217 10 -53 10 -69 -1 -82 -7 -8 -16 -15 -21 -15 -4 0 -37 22
-73 50 -37 27 -66 47 -66 45 0 -2 21 -34 46 -70 40 -57 244 -452 274 -529 10
-26 9 -28 -6 -16 -21 18 -171 219 -216 290 -19 30 -60 93 -90 140 -114 177
-188 337 -188 407 0 31 33 30 118 -3z m1630 -31 c27 -91 44 -303 25 -303 -4 0
-44 37 -89 81 l-82 82 45 71 c49 76 72 106 83 106 4 0 12 -17 18 -37z m-12
-362 c56 -65 64 -79 64 -115 0 -39 -35 -134 -45 -124 -3 3 -20 50 -39 104 -26
79 -37 99 -52 99 -15 0 -19 -6 -17 -31 3 -38 86 -298 119 -372 13 -30 24 -69
24 -88 0 -48 -26 -165 -55 -245 -14 -38 -36 -100 -50 -138 -13 -37 -32 -113
-40 -167 -9 -54 -21 -101 -27 -105 -5 -3 -42 -9 -81 -13 l-71 -6 -77 46 c-85
52 -186 136 -232 193 -17 20 -40 60 -53 89 -19 41 -34 58 -70 80 -84 49 -96
63 -96 111 1 55 7 86 39 193 26 87 26 131 0 109 -8 -6 -19 -29 -26 -52 -7 -22
-15 -39 -17 -36 -8 8 34 154 52 182 16 24 16 27 1 42 -15 15 -13 20 18 55 38
41 43 74 25 138 -7 25 -7 36 3 42 20 12 29 -8 26 -61 -2 -28 -1 -51 2 -51 4 0
23 7 42 15 20 8 55 15 77 15 22 0 40 3 40 6 0 3 -18 26 -40 51 -22 25 -40 51
-40 57 0 6 33 26 73 45 111 51 238 138 251 172 l10 29 99 -97 c55 -54 128
-131 163 -172z m-742 -74 l9 -59 -77 -77 c-70 -71 -90 -101 -66 -101 5 0 26
15 46 32 45 40 43 36 -25 -69 l-53 -82 -40 22 c-21 12 -78 54 -126 92 -130
106 -115 137 46 96 44 -12 89 -21 100 -21 40 0 116 111 128 190 6 34 10 41 28
38 17 -2 22 -13 30 -61z m-2619 -273 c25 -5 81 -29 93 -39 2 -2 -5 -20 -16
-42 -36 -70 -109 -267 -152 -408 -43 -141 -130 -511 -130 -552 0 -37 -16 -34
-58 11 -106 115 -106 181 0 551 48 169 109 336 154 427 36 72 30 69 109 52z
m214 -179 l35 -57 -22 -111 c-46 -237 -56 -328 -57 -522 0 -157 3 -200 18
-247 10 -32 25 -65 33 -73 14 -13 13 -15 -8 -15 -74 0 -241 41 -341 83 l-48
20 7 41 c13 82 116 474 160 616 26 80 67 198 92 264 l46 119 26 -31 c14 -17
40 -56 59 -87z m2466 -383 c32 -70 165 -203 252 -252 34 -19 63 -37 63 -40 0
-10 -246 5 -265 17 -11 6 -40 32 -64 57 -48 49 -49 47 27 66 27 7 42 16 42 27
0 11 -6 14 -22 9 -54 -14 -131 -19 -124 -8 4 7 19 12 34 12 15 0 37 3 50 6 44
12 21 23 -55 26 -42 2 -78 8 -80 13 -2 6 20 9 57 7 37 -2 60 0 60 7 0 5 -18
29 -40 53 -35 36 -80 106 -80 122 0 2 27 -12 60 -31 51 -30 64 -44 85 -91z
m-65 -404 c-5 -64 -13 -126 -19 -137 -6 -11 -38 -43 -71 -72 -70 -60 -80 -86
-80 -204 0 -74 -2 -84 -37 -140 -38 -61 -54 -141 -39 -200 9 -34 26 -32 66 10
19 19 37 35 42 35 18 0 -9 -39 -69 -101 -35 -36 -60 -68 -57 -72 16 -15 64 -6
93 19 20 16 31 21 31 12 0 -7 -25 -32 -55 -55 -50 -39 -71 -73 -44 -73 6 0 30
14 55 30 24 17 44 29 44 26 0 -3 -22 -26 -50 -52 -44 -41 -63 -74 -44 -74 4 0
29 16 55 35 l49 35 0 -34 c0 -19 -4 -38 -10 -41 -13 -8 -13 -45 0 -45 6 0 18
9 27 20 12 14 30 20 60 20 40 0 42 -1 45 -32 2 -28 8 -34 30 -36 17 -2 49 -24
83 -58 72 -70 103 -90 116 -77 7 7 -10 31 -55 76 -36 36 -66 69 -66 74 0 5
-13 17 -30 26 -16 10 -30 27 -30 37 0 23 -36 50 -68 50 -19 0 -22 4 -17 21 6
18 4 21 -13 17 -18 -5 -20 0 -25 71 -8 113 2 398 15 450 9 35 28 62 85 121 80
81 96 116 108 235 8 75 13 107 17 111 2 2 91 4 198 4 156 1 194 -2 191 -12 -3
-7 -6 -65 -9 -128 -3 -93 1 -135 19 -220 13 -58 23 -120 23 -138 0 -20 -20
-72 -51 -130 -54 -104 -83 -186 -107 -297 -20 -92 -53 -276 -61 -342 -7 -58
-49 -132 -90 -159 -39 -26 -108 -14 -217 37 -106 50 -271 143 -287 163 -18 22
-43 180 -56 361 -3 44 -8 105 -11 136 -5 55 -5 56 41 110 80 92 90 129 72 267
l-8 64 39 38 c22 20 63 52 91 70 48 31 64 61 42 75 -6 3 -4 20 5 41 8 20 18
65 21 100 11 114 22 54 13 -68z"/>
<path d="M5618 7003 c6 -2 18 -2 25 0 6 3 1 5 -13 5 -14 0 -19 -2 -12 -5z"/>
<path d="M5528 6993 c7 -3 16 -2 19 1 4 3 -2 6 -13 5 -11 0 -14 -3 -6 -6z"/>
<path d="M5365 6940 c-3 -6 1 -7 9 -4 18 7 21 14 7 14 -6 0 -13 -4 -16 -10z"/>
<path d="M5303 6908 c-18 -13 -33 -27 -33 -32 0 -5 10 0 23 11 12 11 31 25 42
31 11 6 15 12 10 12 -6 0 -25 -10 -42 -22z"/>
<path d="M5773 6863 c-3 -10 -8 -22 -11 -27 -3 -5 0 -6 5 -3 11 7 25 47 17 47
-3 0 -7 -8 -11 -17z"/>
<path d="M5231 6844 c0 -11 3 -14 6 -6 3 7 2 16 -1 19 -3 4 -6 -2 -5 -13z"/>
<path d="M5143 6755 c-3 -9 -3 -18 -1 -21 3 -3 8 4 11 16 6 23 -1 27 -10 5z"/>
<path d="M5728 6743 c7 -3 16 -2 19 1 4 3 -2 6 -13 5 -11 0 -14 -3 -6 -6z"/>
<path d="M5157 6723 c-4 -3 -7 -11 -7 -17 0 -6 5 -5 12 2 6 6 9 14 7 17 -3 3
-9 2 -12 -2z"/>
<path d="M4895 6710 c-3 -5 -1 -10 4 -10 6 0 11 5 11 10 0 6 -2 10 -4 10 -3 0
-8 -4 -11 -10z"/>
<path d="M4866 6675 c-11 -8 -17 -17 -14 -20 2 -3 13 4 23 15 21 23 18 25 -9
5z"/>
<path d="M4795 6579 c-4 -6 -5 -12 -2 -15 2 -3 7 2 10 11 7 17 1 20 -8 4z"/>
<path d="M5915 6565 c-16 -8 -23 -14 -15 -14 8 0 29 6 45 14 17 7 23 13 15 13
-8 0 -28 -6 -45 -13z"/>
<path d="M4770 6530 c-6 -11 -8 -20 -6 -20 3 0 10 9 16 20 6 11 8 20 6 20 -3
0 -10 -9 -16 -20z"/>
<path d="M5848 6543 c6 -2 18 -2 25 0 6 3 1 5 -13 5 -14 0 -19 -2 -12 -5z"/>
<path d="M5630 6470 c0 -54 21 -93 65 -120 54 -33 78 -21 26 13 -44 29 -71 76
-71 122 0 14 -4 25 -10 25 -5 0 -10 -18 -10 -40z"/>
<path d="M5265 6321 c-41 -17 -85 -92 -85 -146 0 -34 35 -102 59 -115 24 -12
61 -13 80 -1 11 7 11 16 -4 54 -15 39 -15 49 -3 74 10 20 20 27 35 25 17 -2
24 3 29 23 8 31 -17 72 -52 85 -29 12 -32 12 -59 1z"/>
<path d="M6082 6175 c-33 -37 -49 -104 -38 -151 10 -40 59 -84 93 -84 48 0 57
12 39 48 -30 58 -11 121 33 109 16 -4 21 -1 22 16 4 71 -17 97 -77 97 -35 0
-47 -5 -72 -35z"/>
<path d="M5489 6033 c-52 -8 -98 -82 -99 -160 0 -37 17 -26 25 14 9 50 31 90
56 103 22 12 64 51 52 49 -5 -1 -20 -4 -34 -6z"/>
<path d="M5532 6000 c-8 -13 -8 -20 -2 -20 6 0 13 7 17 15 9 24 -1 27 -15 5z"/>
<path d="M4880 5855 c0 -8 7 -15 15 -15 8 0 15 7 15 15 0 8 -7 15 -15 15 -8 0
-15 -7 -15 -15z"/>
<path d="M4777 5764 c-9 -10 2 -24 19 -24 8 0 14 7 14 15 0 15 -21 21 -33 9z"/>
<path d="M4932 5734 c4 -21 22 -23 26 -1 2 10 -3 17 -13 17 -10 0 -15 -6 -13
-16z"/>
<path d="M6257 5713 c-13 -12 -7 -23 13 -23 11 0 20 7 20 15 0 15 -21 21 -33
8z"/>
<path d="M6753 5690 c-34 -20 -47 -38 -15 -21 23 13 58 40 52 41 -3 0 -20 -9
-37 -20z"/>
<path d="M4846 5651 c-7 -11 18 -33 27 -24 4 3 7 12 7 20 0 15 -26 18 -34 4z"/>
<path d="M6685 5651 c-3 -5 0 -13 6 -17 7 -4 9 -3 5 4 -3 5 0 13 6 15 9 4 10
6 1 6 -6 1 -14 -3 -18 -8z"/>
<path d="M6334 5599 c-8 -14 18 -31 30 -19 9 9 0 30 -14 30 -5 0 -12 -5 -16
-11z"/>
<path d="M3736 5202 c-7 -12 56 -112 71 -112 19 0 16 8 -19 67 -32 52 -42 61
-52 45z"/>
<path d="M4520 3369 c-122 -98 -223 -200 -211 -212 7 -7 16 -6 28 4 10 9 50
42 88 74 100 82 195 173 195 185 0 22 -29 7 -100 -51z"/>
<path d="M4597 3284 c-74 -77 -138 -134 -162 -145 -46 -21 -60 -16 -24 8 52
37 239 215 239 229 0 23 -20 16 -69 -23 -70 -56 -221 -205 -221 -218 0 -7 -70
-17 -207 -29 -235 -19 -337 -32 -372 -47 -22 -9 -23 -14 -19 -72 10 -120 84
-220 233 -312 41 -26 110 -61 152 -77 76 -29 80 -30 223 -26 132 4 152 7 229
36 217 82 407 260 521 490 35 71 36 83 12 105 -47 42 -109 29 -169 -36 -17
-18 -65 -51 -105 -72 l-73 -38 77 72 c42 40 80 81 83 91 9 28 -17 71 -67 112
-48 39 -119 78 -143 78 -8 0 -70 -57 -138 -126z"/>
<path d="M4331 3275 c-66 -69 -121 -130 -121 -135 0 -5 5 -12 12 -16 13 -8
258 240 258 262 0 33 -34 7 -149 -111z"/>
<path d="M5159 3028 c-70 -105 -171 -219 -263 -298 -54 -46 -85 -79 -81 -88 3
-7 5 -20 5 -28 0 -8 11 -26 25 -39 19 -20 34 -25 74 -25 l50 0 34 58 c66 108
136 257 172 365 20 60 34 111 32 114 -3 2 -24 -24 -48 -59z"/>
<path d="M7610 2670 c-14 -4 -45 -8 -68 -9 -57 -1 -107 -26 -139 -68 -37 -48
-21 -52 33 -9 50 38 78 48 51 18 -31 -34 -56 -108 -76 -227 -11 -66 -29 -151
-40 -189 l-20 -69 36 -33 c38 -35 91 -64 116 -64 26 0 33 44 47 295 12 211 27
276 76 322 47 44 43 52 -16 33z"/>
</g>
</svg>
